<svg xmlns="http://www.w3.org/2000/svg" version="1.0" preserveAspectRatio="xMidYMid slize" viewBox="111 47 391.1 518.8">

<g transform="translate(0.000000,612.000000) scale(0.100000,-0.100000)" fill="#000000" stroke="none">
<path d="M2260 5206 c0 -245 2 -446 5 -446 3 0 55 25 115 55 l110 55 0 160 c0 88 3 160 6 160 3 0 59 -40 123 -90 65 -49 123 -90 128 -90 12 0 105 189 98 201 -6 8 -543 415 -572 433 -10 6 -13 -85 -13 -438z"/>
<path d="M3164 5492 c-44 -86 -131 -255 -193 -374 l-112 -217 -282 -145 c-155 -80 -354 -182 -442 -228 l-160 -83 -11 -93 c-7 -51 -15 -130 -19 -175 l-6 -83 -415 -207 c-228 -114 -414 -210 -414 -215 0 -4 36 -43 80 -87 l80 -80 440 220 c242 121 440 222 440 225 0 14 32 308 36 327 4 23 38 42 514 286 135 69 264 136 288 149 38 21 49 36 109 153 86 170 154 298 163 309 5 4 68 -92 141 -215 73 -123 159 -269 192 -324 33 -55 74 -125 92 -155 17 -30 128 -217 245 -415 117 -198 241 -407 275 -465 34 -58 115 -195 180 -305 65 -110 120 -204 123 -208 7 -14 -24 6 -160 100 -71 48 -350 241 -622 428 l-493 339 13 33 c8 17 38 81 67 140 29 59 58 120 64 135 11 24 -105 -31 -950 -453 -529 -265 -964 -483 -966 -485 -3 -3 28 -38 69 -79 l74 -75 627 0 627 0 164 -118 c261 -188 327 -237 328 -242 0 -3 -240 -94 -533 -203 -292 -109 -560 -209 -595 -223 -36 -13 -60 -18 -55 -11 4 7 90 138 191 292 102 154 196 297 209 318 l23 37 -135 0 -136 0 -216 -327 c-119 -181 -246 -373 -283 -428 -103 -155 -103 -129 -7 -247 90 -111 790 -977 1081 -1337 98 -122 180 -220 181 -219 3 5 472 537 539 613 186 209 1254 1419 1375 1557 l32 37 -212 358 c-117 197 -227 383 -244 413 -18 30 -81 138 -142 240 -173 291 -721 1216 -773 1305 -26 44 -91 154 -145 245 -54 91 -132 222 -173 293 -41 70 -77 127 -81 127 -3 0 -42 -71 -87 -158z m-9 -1760 c83 -57 197 -136 255 -176 112 -77 588 -404 990 -681 305 -210 301 -207 298 -221 -2 -6 -253 -294 -558 -640 -610 -691 -767 -868 -874 -990 l-71 -81 -3 775 c-1 427 1 779 5 783 5 4 143 58 308 119 165 62 306 115 313 119 7 4 -133 112 -365 281 -207 151 -405 296 -440 322 l-64 48 -417 2 -417 3 440 222 c242 122 442 221 445 220 3 -1 73 -48 155 -105z m-197 -2398 l-3 -367 -260 323 c-143 177 -344 426 -447 553 -103 127 -184 234 -180 238 4 4 77 32 162 63 85 32 178 66 205 77 28 11 156 59 285 107 l235 87 3 -357 c1 -196 1 -522 0 -724z"/>
</g>
</svg>